<svg xmlns="http://www.w3.org/2000/svg" xmlns:xlink="http://www.w3.org/1999/xlink" width="224" zoomAndPan="magnify" viewBox="0 0 168 92.249997" height="123" preserveAspectRatio="xMidYMid meet" version="1.0"><defs><clipPath id="399a969e59"><path d="M 71 0.777344 L 132 0.777344 L 132 90.792969 L 71 90.792969 Z M 71 0.777344 " clip-rule="nonzero"/></clipPath><clipPath id="28e3d4d5bc"><path d="M 4 2 L 163.816406 2 L 163.816406 90.792969 L 4 90.792969 Z M 4 2 " clip-rule="nonzero"/></clipPath><clipPath id="340dcc9917"><path d="M 67 39.476562 L 132 39.476562 L 132 91.507812 L 67 91.507812 Z M 67 39.476562 " clip-rule="nonzero"/></clipPath></defs><g clip-path="url(#399a969e59)"><path fill="#38b6ff" d="M 106.628906 -16.46875 L 101.472656 -16.46875 L 116.542969 -35.464844 L 131.613281 -16.46875 L 126.457031 -16.46875 L 126.457031 -4.515625 L 106.628906 -4.515625 Z M 106.628906 70.804688 L 71.199219 70.804688 L 71.199219 90.792969 L 126.457031 90.792969 L 126.457031 38.148438 L 106.628906 38.148438 Z M 106.628906 70.804688 " fill-opacity="1" fill-rule="nonzero"/></g><g clip-path="url(#28e3d4d5bc)"><path fill="#ffffff" d="M 4.179688 49.878906 C 4.179688 43.6875 5.125 38.046875 7.011719 32.957031 C 8.898438 27.871094 11.628906 23.492188 15.195312 19.816406 C 18.765625 16.144531 23.144531 13.289062 28.335938 11.242188 C 33.53125 9.195312 39.433594 8.171875 46.042969 8.171875 L 144.820312 8.171875 L 144.820312 2.695312 L 163.8125 17.761719 L 144.820312 32.832031 L 144.820312 27.527344 L 46.039062 27.527344 C 39.011719 27.527344 33.527344 29.519531 29.59375 33.507812 C 25.660156 37.496094 23.691406 42.742188 23.691406 49.246094 C 23.691406 55.855469 25.660156 61.101562 29.59375 64.984375 C 33.527344 68.863281 39.011719 70.804688 46.039062 70.804688 L 60.578125 70.804688 L 60.578125 90.792969 L 46.039062 90.792969 C 39.429688 90.792969 33.527344 89.824219 28.335938 87.882812 C 23.140625 85.941406 18.761719 83.214844 15.195312 79.699219 C 11.628906 76.1875 8.898438 71.910156 7.007812 66.875 C 5.125 61.835938 4.179688 56.171875 4.179688 49.878906 Z M 4.179688 49.878906 " fill-opacity="1" fill-rule="nonzero"/></g><g clip-path="url(#340dcc9917)"><path fill="#ffffff" d="M 131.691406 63.34375 L 130.929688 61.195312 C 130.511719 60.019531 129.195312 59.050781 128.019531 59.050781 L 125.320312 59.050781 C 123.308594 53.441406 120.886719 46.652344 120.125 45.0625 C 119.015625 42.566406 115.484375 41.460938 113.546875 40.90625 C 113.546875 40.90625 110.292969 39.660156 99.417969 39.660156 C 88.546875 39.660156 85.359375 40.90625 85.359375 40.90625 C 83.074219 41.667969 79.890625 42.773438 78.644531 45.128906 C 78.019531 46.308594 75.527344 53.230469 73.519531 59.050781 L 70.886719 59.050781 C 69.710938 59.050781 68.394531 60.019531 67.976562 61.195312 L 67.214844 63.34375 C 66.800781 64.519531 67.425781 65.488281 68.601562 65.488281 L 71.300781 65.488281 C 70.957031 66.460938 70.75 67.011719 70.75 67.011719 C 70.539062 67.359375 70.402344 68.953125 70.402344 69.4375 L 70.402344 89.035156 C 70.402344 90.28125 71.441406 91.320312 72.6875 91.320312 L 80.996094 91.320312 C 82.246094 91.320312 83.28125 90.28125 83.28125 89.035156 L 83.28125 84.878906 L 115.625 84.878906 L 115.625 89.035156 C 115.625 90.28125 116.664062 91.320312 117.910156 91.320312 L 126.289062 91.320312 C 127.535156 91.320312 128.574219 90.28125 128.574219 89.035156 L 128.574219 69.4375 C 128.574219 69.023438 128.433594 67.359375 128.226562 67.011719 C 128.226562 67.011719 128.019531 66.460938 127.671875 65.488281 L 130.304688 65.488281 C 131.414062 65.488281 132.035156 64.519531 131.691406 63.34375 Z M 83.28125 75.394531 L 80.511719 73.523438 C 75.386719 73.109375 74.765625 74.910156 73.65625 72.96875 L 73.65625 70.613281 C 73.65625 68.328125 74.972656 68.261719 76.425781 68.261719 C 77.8125 68.261719 80.582031 69.4375 82.453125 70.269531 C 84.460938 71.167969 85.914062 70.40625 86.675781 73.382812 C 86.605469 74.769531 85.84375 75.394531 83.28125 75.394531 Z M 78.433594 59.949219 C 80.167969 52.886719 83.074219 47.96875 83.492188 46.792969 C 83.769531 45.960938 83.074219 44.4375 99.488281 44.4375 C 115.902344 44.4375 115 46.652344 115.070312 46.722656 C 115.832031 48.316406 118.878906 53.507812 120.472656 59.949219 C 120.472656 59.949219 114.308594 60.78125 100.25 60.78125 C 86.191406 60.78125 78.433594 59.949219 78.433594 59.949219 Z M 112.300781 73.382812 C 115.554688 69.367188 114.515625 71.167969 116.523438 70.269531 C 118.324219 69.4375 121.164062 68.261719 122.546875 68.261719 C 124.003906 68.261719 125.320312 68.328125 125.320312 70.613281 L 125.320312 72.96875 C 124.28125 74.839844 123.378906 73.175781 118.1875 73.660156 L 115.625 75.324219 C 113.0625 75.394531 111.398438 74.421875 112.300781 73.382812 Z M 112.300781 73.382812 " fill-opacity="1" fill-rule="nonzero"/></g></svg>