<svg xmlns="http://www.w3.org/2000/svg" xmlns:xlink="http://www.w3.org/1999/xlink" width="224" zoomAndPan="magnify" viewBox="0 0 168 92.249997" height="123" preserveAspectRatio="xMidYMid meet" version="1.0"><defs><clipPath id="e243ab599c"><path d="M 71 0.777344 L 132 0.777344 L 132 90.792969 L 71 90.792969 Z M 71 0.777344 " clip-rule="nonzero"/></clipPath><clipPath id="94ea07ec39"><path d="M 4 2 L 163.816406 2 L 163.816406 90.792969 L 4 90.792969 Z M 4 2 " clip-rule="nonzero"/></clipPath><clipPath id="f7e82bd9c9"><path d="M 66 39.476562 L 131 39.476562 L 131 91.507812 L 66 91.507812 Z M 66 39.476562 " clip-rule="nonzero"/></clipPath></defs><g clip-path="url(#e243ab599c)"><path fill="#38b6ff" d="M 106.628906 -16.46875 L 101.472656 -16.46875 L 116.542969 -35.464844 L 131.613281 -16.46875 L 126.457031 -16.46875 L 126.457031 -4.515625 L 106.628906 -4.515625 Z M 106.628906 70.804688 L 71.199219 70.804688 L 71.199219 90.792969 L 126.457031 90.792969 L 126.457031 38.148438 L 106.628906 38.148438 Z M 106.628906 70.804688 " fill-opacity="1" fill-rule="nonzero"/></g><g clip-path="url(#94ea07ec39)"><path fill="#004aad" d="M 4.179688 49.878906 C 4.179688 43.6875 5.125 38.046875 7.011719 32.957031 C 8.898438 27.871094 11.628906 23.492188 15.195312 19.816406 C 18.765625 16.144531 23.144531 13.289062 28.335938 11.242188 C 33.53125 9.195312 39.433594 8.171875 46.042969 8.171875 L 144.820312 8.171875 L 144.820312 2.695312 L 163.8125 17.761719 L 144.820312 32.832031 L 144.820312 27.527344 L 46.039062 27.527344 C 39.011719 27.527344 33.527344 29.519531 29.59375 33.507812 C 25.660156 37.496094 23.691406 42.742188 23.691406 49.246094 C 23.691406 55.855469 25.660156 61.101562 29.59375 64.984375 C 33.527344 68.863281 39.011719 70.804688 46.039062 70.804688 L 60.578125 70.804688 L 60.578125 90.792969 L 46.039062 90.792969 C 39.429688 90.792969 33.527344 89.824219 28.335938 87.882812 C 23.140625 85.941406 18.761719 83.214844 15.195312 79.699219 C 11.628906 76.1875 8.898438 71.910156 7.007812 66.875 C 5.125 61.835938 4.179688 56.171875 4.179688 49.878906 Z M 4.179688 49.878906 " fill-opacity="1" fill-rule="nonzero"/></g><g clip-path="url(#f7e82bd9c9)"><path fill="#004aad" d="M 130.835938 63.34375 L 130.074219 61.195312 C 129.660156 60.019531 128.34375 59.050781 127.167969 59.050781 L 124.464844 59.050781 C 122.457031 53.441406 120.035156 46.652344 119.273438 45.0625 C 118.164062 42.566406 114.632812 41.460938 112.691406 40.90625 C 112.691406 40.90625 109.4375 39.660156 98.566406 39.660156 C 87.691406 39.660156 84.507812 40.90625 84.507812 40.90625 C 82.222656 41.667969 79.035156 42.773438 77.789062 45.128906 C 77.167969 46.308594 74.671875 53.230469 72.664062 59.050781 L 70.035156 59.050781 C 68.855469 59.050781 67.539062 60.019531 67.125 61.195312 L 66.363281 63.34375 C 65.949219 64.519531 66.570312 65.488281 67.75 65.488281 L 70.449219 65.488281 C 70.101562 66.460938 69.894531 67.011719 69.894531 67.011719 C 69.6875 67.359375 69.550781 68.953125 69.550781 69.4375 L 69.550781 89.035156 C 69.550781 90.28125 70.585938 91.320312 71.835938 91.320312 L 80.144531 91.320312 C 81.390625 91.320312 82.429688 90.28125 82.429688 89.035156 L 82.429688 84.878906 L 114.769531 84.878906 L 114.769531 89.035156 C 114.769531 90.28125 115.808594 91.320312 117.054688 91.320312 L 125.433594 91.320312 C 126.683594 91.320312 127.71875 90.28125 127.71875 89.035156 L 127.71875 69.4375 C 127.71875 69.023438 127.582031 67.359375 127.375 67.011719 C 127.375 67.011719 127.167969 66.460938 126.820312 65.488281 L 129.453125 65.488281 C 130.558594 65.488281 131.183594 64.519531 130.835938 63.34375 Z M 82.429688 75.394531 L 79.660156 73.523438 C 74.535156 73.109375 73.910156 74.910156 72.804688 72.96875 L 72.804688 70.613281 C 72.804688 68.328125 74.121094 68.261719 75.574219 68.261719 C 76.957031 68.261719 79.730469 69.4375 81.597656 70.269531 C 83.605469 71.167969 85.0625 70.40625 85.824219 73.382812 C 85.753906 74.769531 84.992188 75.394531 82.429688 75.394531 Z M 77.582031 59.949219 C 79.3125 52.886719 82.222656 47.96875 82.636719 46.792969 C 82.914062 45.960938 82.222656 44.4375 98.632812 44.4375 C 115.046875 44.4375 114.148438 46.652344 114.214844 46.722656 C 114.976562 48.316406 118.023438 53.507812 119.617188 59.949219 C 119.617188 59.949219 113.453125 60.78125 99.394531 60.78125 C 85.339844 60.78125 77.582031 59.949219 77.582031 59.949219 Z M 111.445312 73.382812 C 114.699219 69.367188 113.664062 71.167969 115.671875 70.269531 C 117.472656 69.4375 120.308594 68.261719 121.695312 68.261719 C 123.148438 68.261719 124.464844 68.328125 124.464844 70.613281 L 124.464844 72.96875 C 123.425781 74.839844 122.527344 73.175781 117.332031 73.660156 L 114.769531 75.324219 C 112.207031 75.394531 110.546875 74.421875 111.445312 73.382812 Z M 111.445312 73.382812 " fill-opacity="1" fill-rule="nonzero"/></g></svg>